<svg width="301" height="80" viewBox="0 0 301 80" fill="none" xmlns="http://www.w3.org/2000/svg">
<rect width="301" height="80" fill="white"/>
<path d="M107.025 37.3281C107.025 36.0911 107.585 34.9518 108.705 33.9102C108.809 33.806 108.861 33.6953 108.861 33.5781C108.861 33.4479 108.815 33.3177 108.724 33.1875C108.646 33.0443 108.483 32.9727 108.236 32.9727H103.978C103.405 32.9727 102.963 33.1484 102.65 33.5C102.129 34.0859 101.869 34.6849 101.869 35.2969V36.4102C101.869 37.4258 101.393 38.1289 100.443 38.5195C100.157 38.6367 99.8505 38.6953 99.525 38.6953C99.2125 38.6953 98.913 38.6367 98.6266 38.5195C98.3531 38.4023 98.1188 38.2396 97.9234 38.0312C97.4677 37.5885 97.2398 37.0482 97.2398 36.4102V35.2383C97.2398 33.6497 97.8063 32.2891 98.9391 31.1562C100.072 30.0234 101.433 29.457 103.021 29.457H113.783C114.278 29.457 114.688 29.6328 115.013 29.9844C115.352 30.3229 115.521 30.6745 115.521 31.0391C115.521 31.4036 115.476 31.6966 115.384 31.918C115.293 32.1263 115.17 32.3086 115.013 32.4648C114.675 32.8034 114.31 32.9727 113.92 32.9727C113.529 32.9727 113.203 33.0378 112.943 33.168C112.683 33.2852 112.455 33.4479 112.259 33.6562C111.843 34.099 111.634 34.6393 111.634 35.2773V50.2188C111.634 51.8203 111.074 53.181 109.955 54.3008C108.822 55.4336 107.461 56 105.873 56H103.607C103.112 56 102.696 55.8307 102.357 55.4922C102.018 55.1536 101.849 54.7435 101.849 54.2617C101.849 53.7669 102.018 53.3438 102.357 52.9922C102.696 52.6406 103.112 52.4648 103.607 52.4648H104.72C105.358 52.4648 105.847 52.3021 106.185 51.9766C106.745 51.4427 107.025 50.8438 107.025 50.1797V37.3281ZM134.371 35.6484C134.71 35.3229 135.016 35.1016 135.289 34.9844C135.576 34.8542 135.875 34.7891 136.188 34.7891C136.513 34.7891 136.812 34.8477 137.086 34.9648C137.372 35.082 137.62 35.2448 137.828 35.4531C138.284 35.9089 138.512 36.4492 138.512 37.0742V54.0469C138.512 54.6849 138.349 55.1797 138.023 55.5312C137.464 56.1042 136.93 56.3906 136.422 56.3906C135.927 56.3906 135.556 56.332 135.309 56.2148C135.061 56.1107 134.859 55.987 134.703 55.8438C134.456 55.6354 134.28 55.4271 134.176 55.2188C134.085 54.9974 134 54.8346 133.922 54.7305C133.844 54.6263 133.72 54.5742 133.551 54.5742C133.395 54.5742 133.264 54.6328 133.16 54.75C133.056 54.8542 132.887 55.0234 132.652 55.2578C131.871 56.013 131.012 56.3906 130.074 56.3906C129.15 56.3906 128.375 56.2409 127.75 55.9414C127.125 55.6289 126.578 55.2057 126.109 54.6719C125.12 53.5391 124.625 52.1849 124.625 50.6094V37.0742C124.625 36.0846 125.094 35.388 126.031 34.9844C126.305 34.8542 126.598 34.7891 126.91 34.7891C127.236 34.7891 127.542 34.8477 127.828 34.9648C128.115 35.082 128.362 35.2448 128.57 35.4531C129.026 35.9089 129.254 36.4492 129.254 37.0742V50.5508C129.254 51.2018 129.417 51.6901 129.742 52.0156C130.315 52.5885 130.914 52.875 131.539 52.875C132.568 52.875 133.284 52.4714 133.688 51.6641C133.818 51.4036 133.883 51.1107 133.883 50.7852V37.0742C133.883 36.4362 134.046 35.9609 134.371 35.6484ZM148.123 35.2383C148.123 33.6497 148.69 32.2891 149.823 31.1562C150.955 30.0234 152.316 29.457 153.905 29.457H164.12C165.695 29.457 167.036 30.0234 168.143 31.1562C169.224 32.263 169.764 33.6237 169.764 35.2383V40.9609C169.764 42.5755 169.204 43.9427 168.084 45.0625C166.965 46.1823 165.604 46.7422 164.002 46.7422H160.487V54.0859C160.487 55.0755 160.024 55.7786 159.1 56.1953C158.814 56.3125 158.508 56.3711 158.182 56.3711C157.87 56.3711 157.57 56.306 157.284 56.1758C156.997 56.0586 156.75 55.8958 156.541 55.6875C156.086 55.2578 155.858 54.724 155.858 54.0859V37.3281C155.858 36.0911 156.418 34.9518 157.538 33.9102C157.642 33.806 157.694 33.6953 157.694 33.5781C157.694 33.4479 157.648 33.3177 157.557 33.1875C157.479 33.0443 157.316 32.9727 157.069 32.9727H154.862C154.289 32.9727 153.846 33.1484 153.534 33.5C153.013 34.0859 152.752 34.6849 152.752 35.2969V36.4102C152.752 37.4258 152.277 38.1289 151.327 38.5195C151.04 38.6367 150.734 38.6953 150.409 38.6953C150.096 38.6953 149.797 38.6367 149.51 38.5195C149.237 38.4023 148.996 38.2396 148.788 38.0312C148.345 37.5885 148.123 37.0482 148.123 36.4102V35.2383ZM160.487 43.2656H162.87C163.508 43.2656 163.983 43.0964 164.295 42.7578C164.868 42.1719 165.155 41.5599 165.155 40.9219V35.2969C165.155 34.6719 164.992 34.1901 164.666 33.8516C164.12 33.2656 163.599 32.9727 163.104 32.9727C162.609 32.9727 162.212 33.0378 161.913 33.168C161.626 33.2852 161.379 33.4479 161.17 33.6562C160.715 34.0859 160.487 34.6263 160.487 35.2773V43.2656ZM193.536 52.4648C194.031 52.4648 194.447 52.6406 194.786 52.9922C195.124 53.3438 195.294 53.7669 195.294 54.2617C195.294 54.7435 195.124 55.1536 194.786 55.4922C194.447 55.8307 194.031 56 193.536 56H188.927C187.338 56 185.977 55.4336 184.845 54.3008C183.712 53.168 183.145 51.8073 183.145 50.2188V40.6289C183.145 38.8581 183.744 37.4453 184.942 36.3906C186.192 35.3229 187.911 34.7891 190.098 34.7891C192.26 34.7891 193.966 35.3229 195.216 36.3906C196.427 37.4583 197.032 38.8841 197.032 40.668V46.1367C197.032 46.7878 196.869 47.276 196.544 47.6016C195.984 48.1615 195.372 48.4414 194.708 48.4414H187.774V50.1797C187.774 50.8438 187.937 51.332 188.263 51.6445C188.835 52.1914 189.441 52.4648 190.079 52.4648H193.536ZM192.403 40.6289C192.403 39.9779 192.24 39.4896 191.915 39.1641C191.342 38.5911 190.736 38.3047 190.098 38.3047C189.447 38.3047 188.953 38.474 188.614 38.8125C188.054 39.3724 187.774 39.9779 187.774 40.6289V45.0234H192.403V40.6289ZM224.632 54.1055C224.632 55.0951 224.163 55.7917 223.226 56.1953C222.939 56.3255 222.627 56.3906 222.288 56.3906C221.95 56.3906 221.657 56.3385 221.409 56.2344C221.162 56.1302 220.954 56.013 220.784 55.8828C220.55 55.6745 220.381 55.4727 220.277 55.2773C220.185 55.082 220.101 54.9193 220.023 54.7891C219.945 54.6458 219.827 54.5742 219.671 54.5742C219.515 54.5742 219.378 54.6328 219.261 54.75L218.909 55.082C218.063 55.9544 217.054 56.3906 215.882 56.3906C214.476 56.3906 213.265 55.8177 212.249 54.6719C211.247 53.5521 210.745 52.1979 210.745 50.6094V40.9609C210.745 39.3724 211.312 38.0117 212.445 36.8789C213.577 35.7461 214.938 35.1797 216.527 35.1797H220.003V28.2656C220.003 27.6146 220.166 27.1263 220.491 26.8008C221.051 26.2409 221.657 25.9609 222.308 25.9609C222.972 25.9609 223.467 26.1237 223.792 26.4492C224.352 27.0091 224.632 27.6146 224.632 28.2656V54.1055ZM215.374 50.7852C215.374 51.4492 215.589 51.9635 216.019 52.3281C216.461 52.6797 216.924 52.8555 217.405 52.8555C217.9 52.8555 218.284 52.8099 218.558 52.7188C218.844 52.6276 219.092 52.4974 219.3 52.3281C219.769 51.9635 220.003 51.4818 220.003 50.8828V38.6953H217.679C217.041 38.6953 216.553 38.8646 216.214 39.2031C215.654 39.763 215.374 40.3685 215.374 41.0195V50.7852ZM239.576 37.1328C239.576 36.4948 239.739 36 240.064 35.6484C240.624 35.0755 241.242 34.7891 241.92 34.7891C242.571 34.7891 243.052 34.9583 243.365 35.2969C243.938 35.8828 244.224 36.4948 244.224 37.1328V54.1055C244.224 54.7305 244.061 55.2057 243.736 55.5312C243.163 56.1042 242.636 56.3906 242.154 56.3906C241.672 56.3906 241.288 56.3255 241.002 56.1953C240.715 56.0781 240.468 55.9219 240.259 55.7266C239.804 55.2839 239.576 54.7435 239.576 54.1055V37.1328ZM241.92 25.9609C242.636 25.9609 243.254 26.2214 243.775 26.7422C244.296 27.263 244.556 27.7904 244.556 28.3242C244.556 28.8581 244.485 29.2812 244.341 29.5938C244.198 29.9062 244.009 30.1797 243.775 30.4141C243.254 30.9349 242.636 31.1953 241.92 31.1953C241.203 31.1953 240.585 30.9349 240.064 30.4141C239.543 29.8932 239.283 29.3724 239.283 28.8516C239.283 27.9661 239.543 27.263 240.064 26.7422C240.585 26.2214 241.203 25.9609 241.92 25.9609ZM273.074 54.1055C273.074 55.0951 272.605 55.7917 271.668 56.1953C271.382 56.3255 271.069 56.3906 270.73 56.3906C270.392 56.3906 270.099 56.3385 269.852 56.2344C269.604 56.1302 269.396 56.013 269.227 55.8828C268.992 55.6745 268.823 55.4727 268.719 55.2773C268.628 55.082 268.543 54.9193 268.465 54.7891C268.387 54.6458 268.27 54.5742 268.113 54.5742C267.957 54.5742 267.82 54.6328 267.703 54.75L267.352 55.082C266.505 55.9544 265.496 56.3906 264.324 56.3906C262.918 56.3906 261.707 55.8177 260.691 54.6719C259.689 53.5521 259.188 52.1979 259.188 50.6094V40.9609C259.188 39.3724 259.754 38.0117 260.887 36.8789C262.02 35.7461 263.38 35.1797 264.969 35.1797H268.445V28.2656C268.445 27.6146 268.608 27.1263 268.934 26.8008C269.493 26.2409 270.099 25.9609 270.75 25.9609C271.414 25.9609 271.909 26.1237 272.234 26.4492C272.794 27.0091 273.074 27.6146 273.074 28.2656V54.1055ZM263.816 50.7852C263.816 51.4492 264.031 51.9635 264.461 52.3281C264.904 52.6797 265.366 52.8555 265.848 52.8555C266.342 52.8555 266.727 52.8099 267 52.7188C267.286 52.6276 267.534 52.4974 267.742 52.3281C268.211 51.9635 268.445 51.4818 268.445 50.8828V38.6953H266.121C265.483 38.6953 264.995 38.8646 264.656 39.2031C264.096 39.763 263.816 40.3685 263.816 41.0195V50.7852ZM286.788 40.5312C286.788 38.7734 287.386 37.3802 288.584 36.3516C289.834 35.3099 291.553 34.7891 293.741 34.7891C295.902 34.7891 297.608 35.3099 298.858 36.3516C300.069 37.3932 300.674 38.7995 300.674 40.5703V50.668C300.674 53.3893 299.346 55.1667 296.69 56C295.83 56.2604 294.847 56.3906 293.741 56.3906C292.647 56.3906 291.67 56.2604 290.811 56C289.952 55.7266 289.222 55.3359 288.623 54.8281C287.399 53.8125 286.788 52.4062 286.788 50.6094V40.5312ZM296.045 40.6289C296.045 39.9779 295.883 39.4896 295.557 39.1641C294.984 38.5911 294.379 38.3047 293.741 38.3047C293.09 38.3047 292.595 38.474 292.256 38.8125C291.696 39.3724 291.416 39.9779 291.416 40.6289V50.7852C291.416 51.4492 291.638 51.9635 292.08 52.3281C292.523 52.6797 293.07 52.8555 293.721 52.8555C294.385 52.8555 294.939 52.6797 295.381 52.3281C295.824 51.9635 296.045 51.4492 296.045 50.7852V40.6289Z" fill="#EB5526"/>
<rect width="80" height="80" rx="40" fill="#EB5526"/>
<path d="M25.9461 33.3281C25.9461 32.0911 26.506 30.9518 27.6258 29.9102C27.7299 29.806 27.782 29.6953 27.782 29.5781C27.782 29.4479 27.7365 29.3177 27.6453 29.1875C27.5672 29.0443 27.4044 28.9727 27.157 28.9727H22.8992C22.3263 28.9727 21.8836 29.1484 21.5711 29.5C21.0503 30.0859 20.7898 30.6849 20.7898 31.2969V32.4102C20.7898 33.4258 20.3146 34.1289 19.3641 34.5195C19.0776 34.6367 18.7716 34.6953 18.4461 34.6953C18.1336 34.6953 17.8341 34.6367 17.5477 34.5195C17.2742 34.4023 17.0398 34.2396 16.8445 34.0312C16.3888 33.5885 16.1609 33.0482 16.1609 32.4102V31.2383C16.1609 29.6497 16.7273 28.2891 17.8602 27.1562C18.993 26.0234 20.3536 25.457 21.9422 25.457H32.7039C33.1987 25.457 33.6089 25.6328 33.9344 25.9844C34.2729 26.3229 34.4422 26.6745 34.4422 27.0391C34.4422 27.4036 34.3966 27.6966 34.3055 27.918C34.2143 28.1263 34.0906 28.3086 33.9344 28.4648C33.5958 28.8034 33.2313 28.9727 32.8406 28.9727C32.45 28.9727 32.1245 29.0378 31.8641 29.168C31.6036 29.2852 31.3758 29.4479 31.1805 29.6562C30.7638 30.099 30.5555 30.6393 30.5555 31.2773V46.2188C30.5555 47.8203 29.9956 49.181 28.8758 50.3008C27.743 51.4336 26.3823 52 24.7938 52H22.5281C22.0333 52 21.6167 51.8307 21.2781 51.4922C20.9396 51.1536 20.7703 50.7435 20.7703 50.2617C20.7703 49.7669 20.9396 49.3438 21.2781 48.9922C21.6167 48.6406 22.0333 48.4648 22.5281 48.4648H23.6414C24.2794 48.4648 24.7677 48.3021 25.1063 47.9766C25.6661 47.4427 25.9461 46.8438 25.9461 46.1797V33.3281ZM39.4445 31.2383C39.4445 29.6497 40.0109 28.2891 41.1438 27.1562C42.2766 26.0234 43.6372 25.457 45.2258 25.457H55.4406C57.0161 25.457 58.3573 26.0234 59.4641 27.1562C60.5448 28.263 61.0852 29.6237 61.0852 31.2383V36.9609C61.0852 38.5755 60.5253 39.9427 59.4055 41.0625C58.2857 42.1823 56.925 42.7422 55.3234 42.7422H51.8078V50.0859C51.8078 51.0755 51.3456 51.7786 50.4211 52.1953C50.1346 52.3125 49.8286 52.3711 49.5031 52.3711C49.1906 52.3711 48.8911 52.306 48.6047 52.1758C48.3182 52.0586 48.0708 51.8958 47.8625 51.6875C47.4068 51.2578 47.1789 50.724 47.1789 50.0859V33.3281C47.1789 32.0911 47.7388 30.9518 48.8586 29.9102C48.9628 29.806 49.0148 29.6953 49.0148 29.5781C49.0148 29.4479 48.9693 29.3177 48.8781 29.1875C48.8 29.0443 48.6372 28.9727 48.3898 28.9727H46.1828C45.6099 28.9727 45.1672 29.1484 44.8547 29.5C44.3339 30.0859 44.0734 30.6849 44.0734 31.2969V32.4102C44.0734 33.4258 43.5982 34.1289 42.6477 34.5195C42.3612 34.6367 42.0552 34.6953 41.7297 34.6953C41.4172 34.6953 41.1177 34.6367 40.8313 34.5195C40.5578 34.4023 40.3169 34.2396 40.1086 34.0312C39.6659 33.5885 39.4445 33.0482 39.4445 32.4102V31.2383ZM51.8078 39.2656H54.1906C54.8286 39.2656 55.3039 39.0964 55.6164 38.7578C56.1893 38.1719 56.4758 37.5599 56.4758 36.9219V31.2969C56.4758 30.6719 56.313 30.1901 55.9875 29.8516C55.4406 29.2656 54.9198 28.9727 54.425 28.9727C53.9302 28.9727 53.5331 29.0378 53.2336 29.168C52.9471 29.2852 52.6997 29.4479 52.4914 29.6562C52.0357 30.0859 51.8078 30.6263 51.8078 31.2773V39.2656Z" fill="#F9F9F9"/>
</svg>
