<svg width="285" height="58" viewBox="0 0 285 58" fill="none" xmlns="http://www.w3.org/2000/svg">
<rect width="285" height="58" fill="white"/>
<path d="M91.025 21.3281C91.025 20.0911 91.5849 18.9518 92.7047 17.9102C92.8089 17.806 92.8609 17.6953 92.8609 17.5781C92.8609 17.4479 92.8154 17.3177 92.7242 17.1875C92.6461 17.0443 92.4833 16.9727 92.2359 16.9727H87.9781C87.4052 16.9727 86.9625 17.1484 86.65 17.5C86.1292 18.0859 85.8688 18.6849 85.8688 19.2969V20.4102C85.8688 21.4258 85.3935 22.1289 84.443 22.5195C84.1565 22.6367 83.8505 22.6953 83.525 22.6953C83.2125 22.6953 82.913 22.6367 82.6266 22.5195C82.3531 22.4023 82.1188 22.2396 81.9234 22.0312C81.4677 21.5885 81.2398 21.0482 81.2398 20.4102V19.2383C81.2398 17.6497 81.8063 16.2891 82.9391 15.1562C84.0719 14.0234 85.4326 13.457 87.0211 13.457H97.7828C98.2776 13.457 98.6878 13.6328 99.0133 13.9844C99.3518 14.3229 99.5211 14.6745 99.5211 15.0391C99.5211 15.4036 99.4755 15.6966 99.3844 15.918C99.2932 16.1263 99.1695 16.3086 99.0133 16.4648C98.6747 16.8034 98.3102 16.9727 97.9195 16.9727C97.5289 16.9727 97.2034 17.0378 96.943 17.168C96.6826 17.2852 96.4547 17.4479 96.2594 17.6562C95.8427 18.099 95.6344 18.6393 95.6344 19.2773V34.2188C95.6344 35.8203 95.0745 37.181 93.9547 38.3008C92.8219 39.4336 91.4612 40 89.8727 40H87.607C87.1122 40 86.6956 39.8307 86.357 39.4922C86.0185 39.1536 85.8492 38.7435 85.8492 38.2617C85.8492 37.7669 86.0185 37.3438 86.357 36.9922C86.6956 36.6406 87.1122 36.4648 87.607 36.4648H88.7203C89.3583 36.4648 89.8466 36.3021 90.1852 35.9766C90.7451 35.4427 91.025 34.8438 91.025 34.1797V21.3281ZM118.371 19.6484C118.71 19.3229 119.016 19.1016 119.289 18.9844C119.576 18.8542 119.875 18.7891 120.188 18.7891C120.513 18.7891 120.812 18.8477 121.086 18.9648C121.372 19.082 121.62 19.2448 121.828 19.4531C122.284 19.9089 122.512 20.4492 122.512 21.0742V38.0469C122.512 38.6849 122.349 39.1797 122.023 39.5312C121.464 40.1042 120.93 40.3906 120.422 40.3906C119.927 40.3906 119.556 40.332 119.309 40.2148C119.061 40.1107 118.859 39.987 118.703 39.8438C118.456 39.6354 118.28 39.4271 118.176 39.2188C118.085 38.9974 118 38.8346 117.922 38.7305C117.844 38.6263 117.72 38.5742 117.551 38.5742C117.395 38.5742 117.264 38.6328 117.16 38.75C117.056 38.8542 116.887 39.0234 116.652 39.2578C115.871 40.013 115.012 40.3906 114.074 40.3906C113.15 40.3906 112.375 40.2409 111.75 39.9414C111.125 39.6289 110.578 39.2057 110.109 38.6719C109.12 37.5391 108.625 36.1849 108.625 34.6094V21.0742C108.625 20.0846 109.094 19.388 110.031 18.9844C110.305 18.8542 110.598 18.7891 110.91 18.7891C111.236 18.7891 111.542 18.8477 111.828 18.9648C112.115 19.082 112.362 19.2448 112.57 19.4531C113.026 19.9089 113.254 20.4492 113.254 21.0742V34.5508C113.254 35.2018 113.417 35.6901 113.742 36.0156C114.315 36.5885 114.914 36.875 115.539 36.875C116.568 36.875 117.284 36.4714 117.688 35.6641C117.818 35.4036 117.883 35.1107 117.883 34.7852V21.0742C117.883 20.4362 118.046 19.9609 118.371 19.6484ZM132.123 19.2383C132.123 17.6497 132.69 16.2891 133.823 15.1562C134.955 14.0234 136.316 13.457 137.905 13.457H148.12C149.695 13.457 151.036 14.0234 152.143 15.1562C153.224 16.263 153.764 17.6237 153.764 19.2383V24.9609C153.764 26.5755 153.204 27.9427 152.084 29.0625C150.965 30.1823 149.604 30.7422 148.002 30.7422H144.487V38.0859C144.487 39.0755 144.024 39.7786 143.1 40.1953C142.814 40.3125 142.508 40.3711 142.182 40.3711C141.87 40.3711 141.57 40.306 141.284 40.1758C140.997 40.0586 140.75 39.8958 140.541 39.6875C140.086 39.2578 139.858 38.724 139.858 38.0859V21.3281C139.858 20.0911 140.418 18.9518 141.538 17.9102C141.642 17.806 141.694 17.6953 141.694 17.5781C141.694 17.4479 141.648 17.3177 141.557 17.1875C141.479 17.0443 141.316 16.9727 141.069 16.9727H138.862C138.289 16.9727 137.846 17.1484 137.534 17.5C137.013 18.0859 136.752 18.6849 136.752 19.2969V20.4102C136.752 21.4258 136.277 22.1289 135.327 22.5195C135.04 22.6367 134.734 22.6953 134.409 22.6953C134.096 22.6953 133.797 22.6367 133.51 22.5195C133.237 22.4023 132.996 22.2396 132.788 22.0312C132.345 21.5885 132.123 21.0482 132.123 20.4102V19.2383ZM144.487 27.2656H146.87C147.508 27.2656 147.983 27.0964 148.295 26.7578C148.868 26.1719 149.155 25.5599 149.155 24.9219V19.2969C149.155 18.6719 148.992 18.1901 148.666 17.8516C148.12 17.2656 147.599 16.9727 147.104 16.9727C146.609 16.9727 146.212 17.0378 145.913 17.168C145.626 17.2852 145.379 17.4479 145.17 17.6562C144.715 18.0859 144.487 18.6263 144.487 19.2773V27.2656ZM177.536 36.4648C178.031 36.4648 178.447 36.6406 178.786 36.9922C179.124 37.3438 179.294 37.7669 179.294 38.2617C179.294 38.7435 179.124 39.1536 178.786 39.4922C178.447 39.8307 178.031 40 177.536 40H172.927C171.338 40 169.977 39.4336 168.845 38.3008C167.712 37.168 167.145 35.8073 167.145 34.2188V24.6289C167.145 22.8581 167.744 21.4453 168.942 20.3906C170.192 19.3229 171.911 18.7891 174.098 18.7891C176.26 18.7891 177.966 19.3229 179.216 20.3906C180.427 21.4583 181.032 22.8841 181.032 24.668V30.1367C181.032 30.7878 180.869 31.276 180.544 31.6016C179.984 32.1615 179.372 32.4414 178.708 32.4414H171.774V34.1797C171.774 34.8438 171.937 35.332 172.263 35.6445C172.835 36.1914 173.441 36.4648 174.079 36.4648H177.536ZM176.403 24.6289C176.403 23.9779 176.24 23.4896 175.915 23.1641C175.342 22.5911 174.736 22.3047 174.098 22.3047C173.447 22.3047 172.953 22.474 172.614 22.8125C172.054 23.3724 171.774 23.9779 171.774 24.6289V29.0234H176.403V24.6289ZM208.632 38.1055C208.632 39.0951 208.163 39.7917 207.226 40.1953C206.939 40.3255 206.627 40.3906 206.288 40.3906C205.95 40.3906 205.657 40.3385 205.409 40.2344C205.162 40.1302 204.954 40.013 204.784 39.8828C204.55 39.6745 204.381 39.4727 204.277 39.2773C204.185 39.082 204.101 38.9193 204.023 38.7891C203.945 38.6458 203.827 38.5742 203.671 38.5742C203.515 38.5742 203.378 38.6328 203.261 38.75L202.909 39.082C202.063 39.9544 201.054 40.3906 199.882 40.3906C198.476 40.3906 197.265 39.8177 196.249 38.6719C195.247 37.5521 194.745 36.1979 194.745 34.6094V24.9609C194.745 23.3724 195.312 22.0117 196.445 20.8789C197.577 19.7461 198.938 19.1797 200.527 19.1797H204.003V12.2656C204.003 11.6146 204.166 11.1263 204.491 10.8008C205.051 10.2409 205.657 9.96094 206.308 9.96094C206.972 9.96094 207.467 10.1237 207.792 10.4492C208.352 11.0091 208.632 11.6146 208.632 12.2656V38.1055ZM199.374 34.7852C199.374 35.4492 199.589 35.9635 200.019 36.3281C200.461 36.6797 200.924 36.8555 201.405 36.8555C201.9 36.8555 202.284 36.8099 202.558 36.7188C202.844 36.6276 203.092 36.4974 203.3 36.3281C203.769 35.9635 204.003 35.4818 204.003 34.8828V22.6953H201.679C201.041 22.6953 200.553 22.8646 200.214 23.2031C199.654 23.763 199.374 24.3685 199.374 25.0195V34.7852ZM223.576 21.1328C223.576 20.4948 223.739 20 224.064 19.6484C224.624 19.0755 225.242 18.7891 225.92 18.7891C226.571 18.7891 227.052 18.9583 227.365 19.2969C227.938 19.8828 228.224 20.4948 228.224 21.1328V38.1055C228.224 38.7305 228.061 39.2057 227.736 39.5312C227.163 40.1042 226.636 40.3906 226.154 40.3906C225.672 40.3906 225.288 40.3255 225.002 40.1953C224.715 40.0781 224.468 39.9219 224.259 39.7266C223.804 39.2839 223.576 38.7435 223.576 38.1055V21.1328ZM225.92 9.96094C226.636 9.96094 227.254 10.2214 227.775 10.7422C228.296 11.263 228.556 11.7904 228.556 12.3242C228.556 12.8581 228.485 13.2812 228.341 13.5938C228.198 13.9062 228.009 14.1797 227.775 14.4141C227.254 14.9349 226.636 15.1953 225.92 15.1953C225.203 15.1953 224.585 14.9349 224.064 14.4141C223.543 13.8932 223.283 13.3724 223.283 12.8516C223.283 11.9661 223.543 11.263 224.064 10.7422C224.585 10.2214 225.203 9.96094 225.92 9.96094ZM257.074 38.1055C257.074 39.0951 256.605 39.7917 255.668 40.1953C255.382 40.3255 255.069 40.3906 254.73 40.3906C254.392 40.3906 254.099 40.3385 253.852 40.2344C253.604 40.1302 253.396 40.013 253.227 39.8828C252.992 39.6745 252.823 39.4727 252.719 39.2773C252.628 39.082 252.543 38.9193 252.465 38.7891C252.387 38.6458 252.27 38.5742 252.113 38.5742C251.957 38.5742 251.82 38.6328 251.703 38.75L251.352 39.082C250.505 39.9544 249.496 40.3906 248.324 40.3906C246.918 40.3906 245.707 39.8177 244.691 38.6719C243.689 37.5521 243.188 36.1979 243.188 34.6094V24.9609C243.188 23.3724 243.754 22.0117 244.887 20.8789C246.02 19.7461 247.38 19.1797 248.969 19.1797H252.445V12.2656C252.445 11.6146 252.608 11.1263 252.934 10.8008C253.493 10.2409 254.099 9.96094 254.75 9.96094C255.414 9.96094 255.909 10.1237 256.234 10.4492C256.794 11.0091 257.074 11.6146 257.074 12.2656V38.1055ZM247.816 34.7852C247.816 35.4492 248.031 35.9635 248.461 36.3281C248.904 36.6797 249.366 36.8555 249.848 36.8555C250.342 36.8555 250.727 36.8099 251 36.7188C251.286 36.6276 251.534 36.4974 251.742 36.3281C252.211 35.9635 252.445 35.4818 252.445 34.8828V22.6953H250.121C249.483 22.6953 248.995 22.8646 248.656 23.2031C248.096 23.763 247.816 24.3685 247.816 25.0195V34.7852ZM270.788 24.5312C270.788 22.7734 271.386 21.3802 272.584 20.3516C273.834 19.3099 275.553 18.7891 277.741 18.7891C279.902 18.7891 281.608 19.3099 282.858 20.3516C284.069 21.3932 284.674 22.7995 284.674 24.5703V34.668C284.674 37.3893 283.346 39.1667 280.69 40C279.83 40.2604 278.847 40.3906 277.741 40.3906C276.647 40.3906 275.67 40.2604 274.811 40C273.952 39.7266 273.222 39.3359 272.623 38.8281C271.399 37.8125 270.788 36.4062 270.788 34.6094V24.5312ZM280.045 24.6289C280.045 23.9779 279.883 23.4896 279.557 23.1641C278.984 22.5911 278.379 22.3047 277.741 22.3047C277.09 22.3047 276.595 22.474 276.256 22.8125C275.696 23.3724 275.416 23.9779 275.416 24.6289V34.7852C275.416 35.4492 275.638 35.9635 276.08 36.3281C276.523 36.6797 277.07 36.8555 277.721 36.8555C278.385 36.8555 278.939 36.6797 279.381 36.3281C279.824 35.9635 280.045 35.4492 280.045 34.7852V24.6289Z" fill="#EB5526"/>
<g filter="url(#filter0_d_0_1)">
<rect x="4" width="61" height="50" rx="11" fill="#EB5526"/>
</g>
<path d="M20.4461 19.3281C20.4461 18.0911 21.006 16.9518 22.1258 15.9102C22.2299 15.806 22.282 15.6953 22.282 15.5781C22.282 15.4479 22.2365 15.3177 22.1453 15.1875C22.0672 15.0443 21.9044 14.9727 21.657 14.9727H17.3992C16.8263 14.9727 16.3836 15.1484 16.0711 15.5C15.5503 16.0859 15.2898 16.6849 15.2898 17.2969V18.4102C15.2898 19.4258 14.8146 20.1289 13.8641 20.5195C13.5776 20.6367 13.2716 20.6953 12.9461 20.6953C12.6336 20.6953 12.3341 20.6367 12.0477 20.5195C11.7742 20.4023 11.5398 20.2396 11.3445 20.0312C10.8888 19.5885 10.6609 19.0482 10.6609 18.4102V17.2383C10.6609 15.6497 11.2273 14.2891 12.3602 13.1562C13.493 12.0234 14.8536 11.457 16.4422 11.457H27.2039C27.6987 11.457 28.1089 11.6328 28.4344 11.9844C28.7729 12.3229 28.9422 12.6745 28.9422 13.0391C28.9422 13.4036 28.8966 13.6966 28.8055 13.918C28.7143 14.1263 28.5906 14.3086 28.4344 14.4648C28.0958 14.8034 27.7313 14.9727 27.3406 14.9727C26.95 14.9727 26.6245 15.0378 26.3641 15.168C26.1036 15.2852 25.8758 15.4479 25.6805 15.6562C25.2638 16.099 25.0555 16.6393 25.0555 17.2773V32.2188C25.0555 33.8203 24.4956 35.181 23.3758 36.3008C22.243 37.4336 20.8823 38 19.2938 38H17.0281C16.5333 38 16.1167 37.8307 15.7781 37.4922C15.4396 37.1536 15.2703 36.7435 15.2703 36.2617C15.2703 35.7669 15.4396 35.3438 15.7781 34.9922C16.1167 34.6406 16.5333 34.4648 17.0281 34.4648H18.1414C18.7794 34.4648 19.2677 34.3021 19.6063 33.9766C20.1661 33.4427 20.4461 32.8438 20.4461 32.1797V19.3281ZM33.9445 17.2383C33.9445 15.6497 34.5109 14.2891 35.6438 13.1562C36.7766 12.0234 38.1372 11.457 39.7258 11.457H49.9406C51.5161 11.457 52.8573 12.0234 53.9641 13.1562C55.0448 14.263 55.5852 15.6237 55.5852 17.2383V22.9609C55.5852 24.5755 55.0253 25.9427 53.9055 27.0625C52.7857 28.1823 51.425 28.7422 49.8234 28.7422H46.3078V36.0859C46.3078 37.0755 45.8456 37.7786 44.9211 38.1953C44.6346 38.3125 44.3286 38.3711 44.0031 38.3711C43.6906 38.3711 43.3911 38.306 43.1047 38.1758C42.8182 38.0586 42.5708 37.8958 42.3625 37.6875C41.9068 37.2578 41.6789 36.724 41.6789 36.0859V19.3281C41.6789 18.0911 42.2388 16.9518 43.3586 15.9102C43.4628 15.806 43.5148 15.6953 43.5148 15.5781C43.5148 15.4479 43.4693 15.3177 43.3781 15.1875C43.3 15.0443 43.1372 14.9727 42.8898 14.9727H40.6828C40.1099 14.9727 39.6672 15.1484 39.3547 15.5C38.8339 16.0859 38.5734 16.6849 38.5734 17.2969V18.4102C38.5734 19.4258 38.0982 20.1289 37.1477 20.5195C36.8612 20.6367 36.5552 20.6953 36.2297 20.6953C35.9172 20.6953 35.6177 20.6367 35.3313 20.5195C35.0578 20.4023 34.8169 20.2396 34.6086 20.0312C34.1659 19.5885 33.9445 19.0482 33.9445 18.4102V17.2383ZM46.3078 25.2656H48.6906C49.3286 25.2656 49.8039 25.0964 50.1164 24.7578C50.6893 24.1719 50.9758 23.5599 50.9758 22.9219V17.2969C50.9758 16.6719 50.813 16.1901 50.4875 15.8516C49.9406 15.2656 49.4198 14.9727 48.925 14.9727C48.4302 14.9727 48.0331 15.0378 47.7336 15.168C47.4471 15.2852 47.1997 15.4479 46.9914 15.6562C46.5357 16.0859 46.3078 16.6263 46.3078 17.2773V25.2656Z" fill="#F9F9F9"/>
<defs>
<filter id="filter0_d_0_1" x="0" y="0" width="69" height="58" filterUnits="userSpaceOnUse" color-interpolation-filters="sRGB">
<feFlood flood-opacity="0" result="BackgroundImageFix"/>
<feColorMatrix in="SourceAlpha" type="matrix" values="0 0 0 0 0 0 0 0 0 0 0 0 0 0 0 0 0 0 127 0" result="hardAlpha"/>
<feOffset dy="4"/>
<feGaussianBlur stdDeviation="2"/>
<feComposite in2="hardAlpha" operator="out"/>
<feColorMatrix type="matrix" values="0 0 0 0 0 0 0 0 0 0 0 0 0 0 0 0 0 0 0.25 0"/>
<feBlend mode="normal" in2="BackgroundImageFix" result="effect1_dropShadow_0_1"/>
<feBlend mode="normal" in="SourceGraphic" in2="effect1_dropShadow_0_1" result="shape"/>
</filter>
</defs>
</svg>
