<svg width="204" height="32" viewBox="0 0 204 32" fill="none" xmlns="http://www.w3.org/2000/svg">
<path d="M10.025 12.3281C10.025 11.0911 10.5849 9.95182 11.7047 8.91016C11.8089 8.80599 11.8609 8.69531 11.8609 8.57812C11.8609 8.44792 11.8154 8.31771 11.7242 8.1875C11.6461 8.04427 11.4833 7.97266 11.2359 7.97266H6.97813C6.40521 7.97266 5.9625 8.14844 5.65 8.5C5.12917 9.08594 4.86875 9.6849 4.86875 10.2969V11.4102C4.86875 12.4258 4.39349 13.1289 3.44297 13.5195C3.15651 13.6367 2.85052 13.6953 2.525 13.6953C2.2125 13.6953 1.91302 13.6367 1.62656 13.5195C1.35313 13.4023 1.11875 13.2396 0.923439 13.0312C0.46771 12.5885 0.239845 12.0482 0.239845 11.4102V10.2383C0.239845 8.64974 0.806252 7.28906 1.93906 6.15625C3.07188 5.02344 4.43255 4.45703 6.0211 4.45703H16.7828C17.2776 4.45703 17.6878 4.63281 18.0133 4.98438C18.3518 5.32292 18.5211 5.67448 18.5211 6.03906C18.5211 6.40365 18.4755 6.69661 18.3844 6.91797C18.2932 7.1263 18.1695 7.30859 18.0133 7.46484C17.6747 7.80339 17.3102 7.97266 16.9195 7.97266C16.5289 7.97266 16.2034 8.03776 15.943 8.16797C15.6826 8.28516 15.4547 8.44792 15.2594 8.65625C14.8427 9.09896 14.6344 9.63932 14.6344 10.2773V25.2188C14.6344 26.8203 14.0745 28.181 12.9547 29.3008C11.8219 30.4336 10.4612 31 8.87266 31H6.60703C6.11224 31 5.69557 30.8307 5.35703 30.4922C5.01849 30.1536 4.84922 29.7435 4.84922 29.2617C4.84922 28.7669 5.01849 28.3438 5.35703 27.9922C5.69557 27.6406 6.11224 27.4648 6.60703 27.4648H7.72031C8.35833 27.4648 8.84662 27.3021 9.18516 26.9766C9.74505 26.4427 10.025 25.8438 10.025 25.1797V12.3281ZM37.3711 10.6484C37.7096 10.3229 38.0156 10.1016 38.2891 9.98438C38.5755 9.85417 38.875 9.78906 39.1875 9.78906C39.513 9.78906 39.8125 9.84766 40.0859 9.96484C40.3724 10.082 40.6198 10.2448 40.8281 10.4531C41.2839 10.9089 41.5117 11.4492 41.5117 12.0742V29.0469C41.5117 29.6849 41.349 30.1797 41.0234 30.5312C40.4635 31.1042 39.9297 31.3906 39.4219 31.3906C38.9271 31.3906 38.556 31.332 38.3086 31.2148C38.0612 31.1107 37.8594 30.987 37.7031 30.8438C37.4557 30.6354 37.2799 30.4271 37.1758 30.2188C37.0846 29.9974 37 29.8346 36.9219 29.7305C36.8438 29.6263 36.7201 29.5742 36.5508 29.5742C36.3945 29.5742 36.2643 29.6328 36.1602 29.75C36.056 29.8542 35.8867 30.0234 35.6523 30.2578C34.8711 31.013 34.0117 31.3906 33.0742 31.3906C32.1497 31.3906 31.375 31.2409 30.75 30.9414C30.125 30.6289 29.5781 30.2057 29.1094 29.6719C28.1198 28.5391 27.625 27.1849 27.625 25.6094V12.0742C27.625 11.0846 28.0938 10.388 29.0312 9.98438C29.3047 9.85417 29.5977 9.78906 29.9102 9.78906C30.2357 9.78906 30.5417 9.84766 30.8281 9.96484C31.1146 10.082 31.362 10.2448 31.5703 10.4531C32.026 10.9089 32.2539 11.4492 32.2539 12.0742V25.5508C32.2539 26.2018 32.4167 26.6901 32.7422 27.0156C33.3151 27.5885 33.9141 27.875 34.5391 27.875C35.5677 27.875 36.2839 27.4714 36.6875 26.6641C36.8177 26.4036 36.8828 26.1107 36.8828 25.7852V12.0742C36.8828 11.4362 37.0456 10.9609 37.3711 10.6484ZM51.1234 10.2383C51.1234 8.64974 51.6898 7.28906 52.8227 6.15625C53.9555 5.02344 55.3162 4.45703 56.9047 4.45703H67.1195C68.6951 4.45703 70.0362 5.02344 71.143 6.15625C72.2237 7.26302 72.7641 8.6237 72.7641 10.2383V15.9609C72.7641 17.5755 72.2042 18.9427 71.0844 20.0625C69.9646 21.1823 68.6039 21.7422 67.0023 21.7422H63.4867V29.0859C63.4867 30.0755 63.0245 30.7786 62.1 31.1953C61.8135 31.3125 61.5076 31.3711 61.182 31.3711C60.8695 31.3711 60.5701 31.306 60.2836 31.1758C59.9971 31.0586 59.7497 30.8958 59.5414 30.6875C59.0857 30.2578 58.8578 29.724 58.8578 29.0859V12.3281C58.8578 11.0911 59.4177 9.95182 60.5375 8.91016C60.6417 8.80599 60.6938 8.69531 60.6938 8.57812C60.6938 8.44792 60.6482 8.31771 60.557 8.1875C60.4789 8.04427 60.3162 7.97266 60.0688 7.97266H57.8617C57.2888 7.97266 56.8461 8.14844 56.5336 8.5C56.0128 9.08594 55.7523 9.6849 55.7523 10.2969V11.4102C55.7523 12.4258 55.2771 13.1289 54.3266 13.5195C54.0401 13.6367 53.7341 13.6953 53.4086 13.6953C53.0961 13.6953 52.7966 13.6367 52.5102 13.5195C52.2367 13.4023 51.9958 13.2396 51.7875 13.0312C51.3448 12.5885 51.1234 12.0482 51.1234 11.4102V10.2383ZM63.4867 18.2656H65.8695C66.5076 18.2656 66.9828 18.0964 67.2953 17.7578C67.8682 17.1719 68.1547 16.5599 68.1547 15.9219V10.2969C68.1547 9.67188 67.9919 9.1901 67.6664 8.85156C67.1195 8.26562 66.5987 7.97266 66.1039 7.97266C65.6091 7.97266 65.212 8.03776 64.9125 8.16797C64.626 8.28516 64.3787 8.44792 64.1703 8.65625C63.7146 9.08594 63.4867 9.6263 63.4867 10.2773V18.2656ZM96.5359 27.4648C97.0307 27.4648 97.4474 27.6406 97.7859 27.9922C98.1245 28.3438 98.2938 28.7669 98.2938 29.2617C98.2938 29.7435 98.1245 30.1536 97.7859 30.4922C97.4474 30.8307 97.0307 31 96.5359 31H91.9266C90.338 31 88.9773 30.4336 87.8445 29.3008C86.7117 28.168 86.1453 26.8073 86.1453 25.2188V15.6289C86.1453 13.8581 86.7443 12.4453 87.9422 11.3906C89.1922 10.3229 90.9109 9.78906 93.0984 9.78906C95.2599 9.78906 96.9656 10.3229 98.2156 11.3906C99.4266 12.4583 100.032 13.8841 100.032 15.668V21.1367C100.032 21.7878 99.8693 22.276 99.5438 22.6016C98.9839 23.1615 98.3719 23.4414 97.7078 23.4414H90.7742V25.1797C90.7742 25.8438 90.937 26.332 91.2625 26.6445C91.8354 27.1914 92.4409 27.4648 93.0789 27.4648H96.5359ZM95.4031 15.6289C95.4031 14.9779 95.2404 14.4896 94.9148 14.1641C94.3419 13.5911 93.7365 13.3047 93.0984 13.3047C92.4474 13.3047 91.9526 13.474 91.6141 13.8125C91.0542 14.3724 90.7742 14.9779 90.7742 15.6289V20.0234H95.4031V15.6289ZM127.632 29.1055C127.632 30.0951 127.163 30.7917 126.226 31.1953C125.939 31.3255 125.627 31.3906 125.288 31.3906C124.95 31.3906 124.657 31.3385 124.409 31.2344C124.162 31.1302 123.954 31.013 123.784 30.8828C123.55 30.6745 123.381 30.4727 123.277 30.2773C123.185 30.082 123.101 29.9193 123.023 29.7891C122.945 29.6458 122.827 29.5742 122.671 29.5742C122.515 29.5742 122.378 29.6328 122.261 29.75L121.909 30.082C121.063 30.9544 120.054 31.3906 118.882 31.3906C117.476 31.3906 116.265 30.8177 115.249 29.6719C114.247 28.5521 113.745 27.1979 113.745 25.6094V15.9609C113.745 14.3724 114.312 13.0117 115.445 11.8789C116.577 10.7461 117.938 10.1797 119.527 10.1797H123.003V3.26562C123.003 2.61458 123.166 2.1263 123.491 1.80078C124.051 1.24089 124.657 0.960938 125.308 0.960938C125.972 0.960938 126.467 1.1237 126.792 1.44922C127.352 2.00911 127.632 2.61458 127.632 3.26562V29.1055ZM118.374 25.7852C118.374 26.4492 118.589 26.9635 119.019 27.3281C119.461 27.6797 119.924 27.8555 120.405 27.8555C120.9 27.8555 121.284 27.8099 121.558 27.7188C121.844 27.6276 122.092 27.4974 122.3 27.3281C122.769 26.9635 123.003 26.4818 123.003 25.8828V13.6953H120.679C120.041 13.6953 119.553 13.8646 119.214 14.2031C118.654 14.763 118.374 15.3685 118.374 16.0195V25.7852ZM142.576 12.1328C142.576 11.4948 142.739 11 143.064 10.6484C143.624 10.0755 144.242 9.78906 144.92 9.78906C145.571 9.78906 146.052 9.95833 146.365 10.2969C146.938 10.8828 147.224 11.4948 147.224 12.1328V29.1055C147.224 29.7305 147.061 30.2057 146.736 30.5312C146.163 31.1042 145.636 31.3906 145.154 31.3906C144.672 31.3906 144.288 31.3255 144.002 31.1953C143.715 31.0781 143.468 30.9219 143.259 30.7266C142.804 30.2839 142.576 29.7435 142.576 29.1055V12.1328ZM144.92 0.960938C145.636 0.960938 146.254 1.22135 146.775 1.74219C147.296 2.26302 147.556 2.79036 147.556 3.32422C147.556 3.85807 147.485 4.28125 147.341 4.59375C147.198 4.90625 147.009 5.17969 146.775 5.41406C146.254 5.9349 145.636 6.19531 144.92 6.19531C144.203 6.19531 143.585 5.9349 143.064 5.41406C142.543 4.89323 142.283 4.3724 142.283 3.85156C142.283 2.96615 142.543 2.26302 143.064 1.74219C143.585 1.22135 144.203 0.960938 144.92 0.960938ZM176.074 29.1055C176.074 30.0951 175.605 30.7917 174.668 31.1953C174.382 31.3255 174.069 31.3906 173.73 31.3906C173.392 31.3906 173.099 31.3385 172.852 31.2344C172.604 31.1302 172.396 31.013 172.227 30.8828C171.992 30.6745 171.823 30.4727 171.719 30.2773C171.628 30.082 171.543 29.9193 171.465 29.7891C171.387 29.6458 171.27 29.5742 171.113 29.5742C170.957 29.5742 170.82 29.6328 170.703 29.75L170.352 30.082C169.505 30.9544 168.496 31.3906 167.324 31.3906C165.918 31.3906 164.707 30.8177 163.691 29.6719C162.689 28.5521 162.188 27.1979 162.188 25.6094V15.9609C162.188 14.3724 162.754 13.0117 163.887 11.8789C165.02 10.7461 166.38 10.1797 167.969 10.1797H171.445V3.26562C171.445 2.61458 171.608 2.1263 171.934 1.80078C172.493 1.24089 173.099 0.960938 173.75 0.960938C174.414 0.960938 174.909 1.1237 175.234 1.44922C175.794 2.00911 176.074 2.61458 176.074 3.26562V29.1055ZM166.816 25.7852C166.816 26.4492 167.031 26.9635 167.461 27.3281C167.904 27.6797 168.366 27.8555 168.848 27.8555C169.342 27.8555 169.727 27.8099 170 27.7188C170.286 27.6276 170.534 27.4974 170.742 27.3281C171.211 26.9635 171.445 26.4818 171.445 25.8828V13.6953H169.121C168.483 13.6953 167.995 13.8646 167.656 14.2031C167.096 14.763 166.816 15.3685 166.816 16.0195V25.7852ZM189.788 15.5312C189.788 13.7734 190.386 12.3802 191.584 11.3516C192.834 10.3099 194.553 9.78906 196.741 9.78906C198.902 9.78906 200.608 10.3099 201.858 11.3516C203.069 12.3932 203.674 13.7995 203.674 15.5703V25.668C203.674 28.3893 202.346 30.1667 199.69 31C198.83 31.2604 197.847 31.3906 196.741 31.3906C195.647 31.3906 194.67 31.2604 193.811 31C192.952 30.7266 192.222 30.3359 191.623 29.8281C190.399 28.8125 189.788 27.4062 189.788 25.6094V15.5312ZM199.045 15.6289C199.045 14.9779 198.883 14.4896 198.557 14.1641C197.984 13.5911 197.379 13.3047 196.741 13.3047C196.09 13.3047 195.595 13.474 195.256 13.8125C194.696 14.3724 194.416 14.9779 194.416 15.6289V25.7852C194.416 26.4492 194.638 26.9635 195.08 27.3281C195.523 27.6797 196.07 27.8555 196.721 27.8555C197.385 27.8555 197.939 27.6797 198.381 27.3281C198.824 26.9635 199.045 26.4492 199.045 25.7852V15.6289Z" fill="#EB5526"/>
</svg>
